<svg width="24" height="33" viewBox="0 0 24 33" fill="none" xmlns="http://www.w3.org/2000/svg">
<path d="M15.5391 23.7305C15.5391 23.2018 15.3597 22.7298 15.001 22.3145C14.6423 21.8991 14.0758 21.4743 13.3018 21.04C12.5277 20.5869 11.4987 20.0866 10.2148 19.5391C8.81771 18.9727 7.58105 18.3874 6.50488 17.7832C5.42871 17.179 4.51302 16.5088 3.75781 15.7725C3.02148 15.0361 2.46452 14.196 2.08691 13.252C1.70931 12.3079 1.52051 11.2318 1.52051 10.0234C1.52051 8.7207 1.75651 7.52181 2.22852 6.42676C2.7194 5.31283 3.41797 4.34049 4.32422 3.50977C5.23047 2.66016 6.33496 1.99935 7.6377 1.52734C8.95931 1.03646 10.4414 0.791016 12.084 0.791016C14.3874 0.791016 16.3604 1.19694 18.0029 2.00879C19.6644 2.80176 20.9388 3.91569 21.8262 5.35059C22.7135 6.78548 23.1572 8.45638 23.1572 10.3633H15.2275C15.2275 9.68359 15.1237 9.07943 14.916 8.55078C14.7083 8.00326 14.3685 7.57845 13.8965 7.27637C13.4434 6.97428 12.8298 6.82324 12.0557 6.82324C11.4893 6.82324 10.9795 6.94596 10.5264 7.19141C10.0921 7.43685 9.74284 7.76725 9.47852 8.18262C9.23307 8.5791 9.11035 9.05111 9.11035 9.59863C9.11035 10.014 9.19531 10.3822 9.36523 10.7031C9.55404 11.0241 9.84668 11.3356 10.2432 11.6377C10.6396 11.9398 11.1683 12.2607 11.8291 12.6006C12.5088 12.9215 13.3395 13.2803 14.3213 13.6768C16.3604 14.432 18.0312 15.2438 19.334 16.1123C20.6556 16.9808 21.6374 18.0003 22.2793 19.1709C22.9212 20.3226 23.2422 21.748 23.2422 23.4473C23.2422 24.8066 22.9779 26.0433 22.4492 27.1572C21.9395 28.2712 21.1937 29.234 20.2119 30.0459C19.2301 30.8577 18.0501 31.4808 16.6719 31.915C15.3125 32.3493 13.7926 32.5664 12.1123 32.5664C9.639 32.5664 7.55273 32.0755 5.85352 31.0938C4.1543 30.112 2.87044 28.8564 2.00195 27.3271C1.13346 25.779 0.699219 24.1742 0.699219 22.5127H8.23242C8.27018 23.5322 8.45898 24.3346 8.79883 24.9199C9.15755 25.4863 9.639 25.8828 10.2432 26.1094C10.8473 26.3359 11.5176 26.4492 12.2539 26.4492C12.9902 26.4492 13.5944 26.3548 14.0664 26.166C14.5573 25.9583 14.9255 25.6468 15.1709 25.2314C15.4163 24.7972 15.5391 24.2969 15.5391 23.7305Z" fill="url(#paint0_linear_9705_25)"/>
<defs>
<linearGradient id="paint0_linear_9705_25" x1="-1" y1="-4" x2="22.8489" y2="27.0883" gradientUnits="userSpaceOnUse">
<stop stop-color="#D10A42"/>
<stop offset="1" stop-color="#0041CA"/>
</linearGradient>
</defs>
</svg>
